<mxfile host="app.diagrams.net" agent="Mozilla/5.0 (Windows NT 10.0; Win64; x64) AppleWebKit/537.36 (KHTML, like Gecko) Chrome/138.0.0.0 Safari/537.36 Edg/138.0.0.0" version="28.0.7">
  <diagram id="R2lEEEUBdFMjLlhIrx00" name="Page-1">
    <mxGraphModel dx="2795" dy="1075" grid="1" gridSize="10" guides="1" tooltips="1" connect="1" arrows="1" fold="1" page="1" pageScale="1" pageWidth="850" pageHeight="1100" math="0" shadow="0" extFonts="Permanent Marker^https://fonts.googleapis.com/css?family=Permanent+Marker">
      <root>
        <mxCell id="0" />
        <mxCell id="1" parent="0" />
        <mxCell id="-_nmz9Q-kG3tC2L_Btlv-41" style="edgeStyle=orthogonalEdgeStyle;rounded=0;orthogonalLoop=1;jettySize=auto;html=1;exitX=0.5;exitY=1;exitDx=0;exitDy=0;entryX=0.5;entryY=0;entryDx=0;entryDy=0;" edge="1" parent="1" source="-_nmz9Q-kG3tC2L_Btlv-25" target="-_nmz9Q-kG3tC2L_Btlv-35">
          <mxGeometry relative="1" as="geometry" />
        </mxCell>
        <mxCell id="-_nmz9Q-kG3tC2L_Btlv-25" value="Citizen" style="rounded=0;whiteSpace=wrap;html=1;fillColor=none;fontSize=19;" vertex="1" parent="1">
          <mxGeometry x="160" y="90" width="120" height="60" as="geometry" />
        </mxCell>
        <mxCell id="-_nmz9Q-kG3tC2L_Btlv-52" style="edgeStyle=orthogonalEdgeStyle;rounded=0;orthogonalLoop=1;jettySize=auto;html=1;entryX=0.5;entryY=0;entryDx=0;entryDy=0;exitX=0.883;exitY=1.044;exitDx=0;exitDy=0;exitPerimeter=0;" edge="1" parent="1" source="-_nmz9Q-kG3tC2L_Btlv-26" target="-_nmz9Q-kG3tC2L_Btlv-30">
          <mxGeometry relative="1" as="geometry" />
        </mxCell>
        <mxCell id="-_nmz9Q-kG3tC2L_Btlv-54" style="edgeStyle=orthogonalEdgeStyle;rounded=0;orthogonalLoop=1;jettySize=auto;html=1;exitX=0.25;exitY=1;exitDx=0;exitDy=0;entryX=0.5;entryY=0;entryDx=0;entryDy=0;" edge="1" parent="1" source="-_nmz9Q-kG3tC2L_Btlv-26" target="-_nmz9Q-kG3tC2L_Btlv-31">
          <mxGeometry relative="1" as="geometry" />
        </mxCell>
        <mxCell id="-_nmz9Q-kG3tC2L_Btlv-57" style="edgeStyle=orthogonalEdgeStyle;rounded=0;orthogonalLoop=1;jettySize=auto;html=1;exitX=0;exitY=0.75;exitDx=0;exitDy=0;entryX=0.5;entryY=0;entryDx=0;entryDy=0;" edge="1" parent="1" source="-_nmz9Q-kG3tC2L_Btlv-26" target="-_nmz9Q-kG3tC2L_Btlv-28">
          <mxGeometry relative="1" as="geometry" />
        </mxCell>
        <mxCell id="-_nmz9Q-kG3tC2L_Btlv-26" value="&lt;font style=&quot;font-size: 16px;&quot;&gt;User&lt;/font&gt;" style="rounded=0;whiteSpace=wrap;html=1;fillColor=none;" vertex="1" parent="1">
          <mxGeometry x="30" y="460" width="120" height="60" as="geometry" />
        </mxCell>
        <mxCell id="-_nmz9Q-kG3tC2L_Btlv-61" style="edgeStyle=orthogonalEdgeStyle;rounded=0;orthogonalLoop=1;jettySize=auto;html=1;exitX=0.5;exitY=1;exitDx=0;exitDy=0;entryX=1;entryY=0.5;entryDx=0;entryDy=0;startArrow=classic;startFill=1;" edge="1" parent="1" source="-_nmz9Q-kG3tC2L_Btlv-27" target="-_nmz9Q-kG3tC2L_Btlv-59">
          <mxGeometry relative="1" as="geometry" />
        </mxCell>
        <mxCell id="-_nmz9Q-kG3tC2L_Btlv-65" value="&lt;font style=&quot;font-size: 16px;&quot;&gt;Modify Report Status&lt;/font&gt;" style="edgeLabel;html=1;align=center;verticalAlign=middle;resizable=0;points=[];" vertex="1" connectable="0" parent="-_nmz9Q-kG3tC2L_Btlv-61">
          <mxGeometry x="-0.5374" y="4" relative="1" as="geometry">
            <mxPoint as="offset" />
          </mxGeometry>
        </mxCell>
        <mxCell id="-_nmz9Q-kG3tC2L_Btlv-27" value="&lt;font style=&quot;font-size: 16px;&quot;&gt;View/Modify/Delete Reports&lt;/font&gt;" style="rounded=0;whiteSpace=wrap;html=1;fillColor=none;" vertex="1" parent="1">
          <mxGeometry x="340" y="580" width="140" height="60" as="geometry" />
        </mxCell>
        <mxCell id="-_nmz9Q-kG3tC2L_Btlv-74" style="edgeStyle=orthogonalEdgeStyle;rounded=0;orthogonalLoop=1;jettySize=auto;html=1;exitX=0.5;exitY=1;exitDx=0;exitDy=0;entryX=0;entryY=0.5;entryDx=0;entryDy=0;startArrow=classic;startFill=1;endArrow=none;endFill=0;" edge="1" parent="1" source="-_nmz9Q-kG3tC2L_Btlv-28" target="-_nmz9Q-kG3tC2L_Btlv-73">
          <mxGeometry relative="1" as="geometry" />
        </mxCell>
        <mxCell id="-_nmz9Q-kG3tC2L_Btlv-28" value="&lt;font style=&quot;font-size: 16px;&quot;&gt;View ALerts&lt;/font&gt;" style="rounded=0;whiteSpace=wrap;html=1;fillColor=none;" vertex="1" parent="1">
          <mxGeometry x="-240" y="580" width="120" height="60" as="geometry" />
        </mxCell>
        <mxCell id="-_nmz9Q-kG3tC2L_Btlv-29" value="&lt;font style=&quot;font-size: 16px;&quot;&gt;View/Edit?Send Alerts&lt;/font&gt;" style="rounded=0;whiteSpace=wrap;html=1;fillColor=none;" vertex="1" parent="1">
          <mxGeometry x="520" y="580" width="120" height="60" as="geometry" />
        </mxCell>
        <mxCell id="-_nmz9Q-kG3tC2L_Btlv-30" value="&lt;font style=&quot;font-size: 16px;&quot;&gt;View Dashboard&lt;/font&gt;" style="rounded=0;whiteSpace=wrap;html=1;fillColor=none;" vertex="1" parent="1">
          <mxGeometry x="60" y="580" width="120" height="60" as="geometry" />
        </mxCell>
        <mxCell id="-_nmz9Q-kG3tC2L_Btlv-62" style="edgeStyle=orthogonalEdgeStyle;rounded=0;orthogonalLoop=1;jettySize=auto;html=1;exitX=0.5;exitY=1;exitDx=0;exitDy=0;entryX=0;entryY=0.5;entryDx=0;entryDy=0;" edge="1" parent="1" source="-_nmz9Q-kG3tC2L_Btlv-31" target="-_nmz9Q-kG3tC2L_Btlv-59">
          <mxGeometry relative="1" as="geometry" />
        </mxCell>
        <mxCell id="-_nmz9Q-kG3tC2L_Btlv-64" value="&lt;font style=&quot;font-size: 16px;&quot;&gt;Add Report to Db&lt;/font&gt;" style="edgeLabel;html=1;align=center;verticalAlign=middle;resizable=0;points=[];" vertex="1" connectable="0" parent="-_nmz9Q-kG3tC2L_Btlv-62">
          <mxGeometry x="-0.4189" y="-3" relative="1" as="geometry">
            <mxPoint y="-1" as="offset" />
          </mxGeometry>
        </mxCell>
        <mxCell id="-_nmz9Q-kG3tC2L_Btlv-31" value="&lt;font style=&quot;font-size: 16px;&quot;&gt;Submit Report&lt;/font&gt;" style="rounded=0;whiteSpace=wrap;html=1;fillColor=none;" vertex="1" parent="1">
          <mxGeometry x="-100" y="580" width="120" height="60" as="geometry" />
        </mxCell>
        <mxCell id="-_nmz9Q-kG3tC2L_Btlv-53" style="edgeStyle=orthogonalEdgeStyle;rounded=0;orthogonalLoop=1;jettySize=auto;html=1;exitX=0.5;exitY=1;exitDx=0;exitDy=0;entryX=0.5;entryY=0;entryDx=0;entryDy=0;" edge="1" parent="1" source="-_nmz9Q-kG3tC2L_Btlv-32" target="-_nmz9Q-kG3tC2L_Btlv-30">
          <mxGeometry relative="1" as="geometry" />
        </mxCell>
        <mxCell id="-_nmz9Q-kG3tC2L_Btlv-55" style="edgeStyle=orthogonalEdgeStyle;rounded=0;orthogonalLoop=1;jettySize=auto;html=1;exitX=0.75;exitY=1;exitDx=0;exitDy=0;" edge="1" parent="1" source="-_nmz9Q-kG3tC2L_Btlv-32" target="-_nmz9Q-kG3tC2L_Btlv-27">
          <mxGeometry relative="1" as="geometry" />
        </mxCell>
        <mxCell id="-_nmz9Q-kG3tC2L_Btlv-58" style="edgeStyle=orthogonalEdgeStyle;rounded=0;orthogonalLoop=1;jettySize=auto;html=1;exitX=1;exitY=0.5;exitDx=0;exitDy=0;entryX=0.5;entryY=0;entryDx=0;entryDy=0;" edge="1" parent="1" source="-_nmz9Q-kG3tC2L_Btlv-32" target="-_nmz9Q-kG3tC2L_Btlv-29">
          <mxGeometry relative="1" as="geometry" />
        </mxCell>
        <mxCell id="-_nmz9Q-kG3tC2L_Btlv-32" value="&lt;font style=&quot;font-size: 16px;&quot;&gt;Admin&lt;/font&gt;" style="rounded=0;whiteSpace=wrap;html=1;fillColor=none;" vertex="1" parent="1">
          <mxGeometry x="260" y="460" width="120" height="60" as="geometry" />
        </mxCell>
        <mxCell id="-_nmz9Q-kG3tC2L_Btlv-42" style="edgeStyle=orthogonalEdgeStyle;rounded=0;orthogonalLoop=1;jettySize=auto;html=1;exitX=1;exitY=0.5;exitDx=0;exitDy=0;" edge="1" parent="1" source="-_nmz9Q-kG3tC2L_Btlv-35" target="-_nmz9Q-kG3tC2L_Btlv-39">
          <mxGeometry relative="1" as="geometry" />
        </mxCell>
        <mxCell id="-_nmz9Q-kG3tC2L_Btlv-43" value="&lt;font style=&quot;font-size: 16px;&quot;&gt;User Data&lt;/font&gt;" style="edgeLabel;html=1;align=center;verticalAlign=middle;resizable=0;points=[];" vertex="1" connectable="0" parent="-_nmz9Q-kG3tC2L_Btlv-42">
          <mxGeometry x="0.0305" y="4" relative="1" as="geometry">
            <mxPoint y="5" as="offset" />
          </mxGeometry>
        </mxCell>
        <mxCell id="-_nmz9Q-kG3tC2L_Btlv-45" value="" style="edgeStyle=orthogonalEdgeStyle;rounded=0;orthogonalLoop=1;jettySize=auto;html=1;" edge="1" parent="1" source="-_nmz9Q-kG3tC2L_Btlv-35" target="-_nmz9Q-kG3tC2L_Btlv-44">
          <mxGeometry relative="1" as="geometry" />
        </mxCell>
        <mxCell id="-_nmz9Q-kG3tC2L_Btlv-35" value="Register" style="whiteSpace=wrap;html=1;fillColor=none;rounded=0;fontSize=16;" vertex="1" parent="1">
          <mxGeometry x="160" y="210" width="120" height="60" as="geometry" />
        </mxCell>
        <mxCell id="-_nmz9Q-kG3tC2L_Btlv-39" value="User Db" style="shape=process;whiteSpace=wrap;html=1;backgroundOutline=1;fillColor=none;fontSize=16;" vertex="1" parent="1">
          <mxGeometry x="400" y="210" width="120" height="60" as="geometry" />
        </mxCell>
        <mxCell id="-_nmz9Q-kG3tC2L_Btlv-40" style="edgeStyle=orthogonalEdgeStyle;rounded=0;orthogonalLoop=1;jettySize=auto;html=1;exitX=0.5;exitY=1;exitDx=0;exitDy=0;" edge="1" parent="1" source="-_nmz9Q-kG3tC2L_Btlv-25" target="-_nmz9Q-kG3tC2L_Btlv-25">
          <mxGeometry relative="1" as="geometry" />
        </mxCell>
        <mxCell id="-_nmz9Q-kG3tC2L_Btlv-46" style="edgeStyle=orthogonalEdgeStyle;rounded=0;orthogonalLoop=1;jettySize=auto;html=1;exitX=1;exitY=0.5;exitDx=0;exitDy=0;entryX=0.5;entryY=1;entryDx=0;entryDy=0;" edge="1" parent="1" source="-_nmz9Q-kG3tC2L_Btlv-44" target="-_nmz9Q-kG3tC2L_Btlv-39">
          <mxGeometry relative="1" as="geometry" />
        </mxCell>
        <mxCell id="-_nmz9Q-kG3tC2L_Btlv-47" value="&lt;font style=&quot;font-size: 16px;&quot;&gt;JWT Token&lt;/font&gt;" style="edgeLabel;html=1;align=center;verticalAlign=middle;resizable=0;points=[];" vertex="1" connectable="0" parent="-_nmz9Q-kG3tC2L_Btlv-46">
          <mxGeometry x="-0.4431" y="4" relative="1" as="geometry">
            <mxPoint x="-1" y="4" as="offset" />
          </mxGeometry>
        </mxCell>
        <mxCell id="-_nmz9Q-kG3tC2L_Btlv-48" style="edgeStyle=orthogonalEdgeStyle;rounded=0;orthogonalLoop=1;jettySize=auto;html=1;exitX=1;exitY=0.75;exitDx=0;exitDy=0;entryX=0.75;entryY=1;entryDx=0;entryDy=0;" edge="1" parent="1" source="-_nmz9Q-kG3tC2L_Btlv-44" target="-_nmz9Q-kG3tC2L_Btlv-39">
          <mxGeometry relative="1" as="geometry">
            <Array as="points">
              <mxPoint x="280" y="410" />
              <mxPoint x="490" y="410" />
            </Array>
          </mxGeometry>
        </mxCell>
        <mxCell id="-_nmz9Q-kG3tC2L_Btlv-49" value="&lt;font style=&quot;font-size: 16px;&quot;&gt;Number OTP&lt;/font&gt;" style="edgeLabel;html=1;align=center;verticalAlign=middle;resizable=0;points=[];" vertex="1" connectable="0" parent="-_nmz9Q-kG3tC2L_Btlv-48">
          <mxGeometry x="-0.0925" y="1" relative="1" as="geometry">
            <mxPoint x="-1" as="offset" />
          </mxGeometry>
        </mxCell>
        <mxCell id="-_nmz9Q-kG3tC2L_Btlv-50" style="edgeStyle=orthogonalEdgeStyle;rounded=0;orthogonalLoop=1;jettySize=auto;html=1;exitX=0.5;exitY=1;exitDx=0;exitDy=0;entryX=0.5;entryY=0;entryDx=0;entryDy=0;" edge="1" parent="1" source="-_nmz9Q-kG3tC2L_Btlv-44" target="-_nmz9Q-kG3tC2L_Btlv-26">
          <mxGeometry relative="1" as="geometry" />
        </mxCell>
        <mxCell id="-_nmz9Q-kG3tC2L_Btlv-51" style="edgeStyle=orthogonalEdgeStyle;rounded=0;orthogonalLoop=1;jettySize=auto;html=1;exitX=0.5;exitY=1;exitDx=0;exitDy=0;entryX=0.5;entryY=0;entryDx=0;entryDy=0;" edge="1" parent="1" source="-_nmz9Q-kG3tC2L_Btlv-44" target="-_nmz9Q-kG3tC2L_Btlv-32">
          <mxGeometry relative="1" as="geometry" />
        </mxCell>
        <mxCell id="-_nmz9Q-kG3tC2L_Btlv-44" value="&lt;font style=&quot;font-size: 15px;&quot;&gt;Login&lt;/font&gt;&lt;div&gt;&lt;font style=&quot;font-size: 15px;&quot;&gt;Verify OTP&lt;/font&gt;&lt;/div&gt;&lt;div&gt;&lt;font style=&quot;font-size: 15px;&quot;&gt;Forget Password&lt;/font&gt;&lt;/div&gt;" style="whiteSpace=wrap;html=1;fontSize=16;fillColor=none;rounded=0;" vertex="1" parent="1">
          <mxGeometry x="160" y="350" width="120" height="60" as="geometry" />
        </mxCell>
        <mxCell id="-_nmz9Q-kG3tC2L_Btlv-71" style="edgeStyle=orthogonalEdgeStyle;rounded=0;orthogonalLoop=1;jettySize=auto;html=1;exitX=1;exitY=0.25;exitDx=0;exitDy=0;entryX=0.896;entryY=1.021;entryDx=0;entryDy=0;entryPerimeter=0;" edge="1" parent="1" source="-_nmz9Q-kG3tC2L_Btlv-59" target="-_nmz9Q-kG3tC2L_Btlv-68">
          <mxGeometry relative="1" as="geometry" />
        </mxCell>
        <mxCell id="-_nmz9Q-kG3tC2L_Btlv-72" value="&lt;font style=&quot;font-size: 16px;&quot;&gt;Show All Incidents&amp;nbsp;&lt;/font&gt;" style="edgeLabel;html=1;align=center;verticalAlign=middle;resizable=0;points=[];" vertex="1" connectable="0" parent="-_nmz9Q-kG3tC2L_Btlv-71">
          <mxGeometry x="0.6608" relative="1" as="geometry">
            <mxPoint as="offset" />
          </mxGeometry>
        </mxCell>
        <mxCell id="-_nmz9Q-kG3tC2L_Btlv-59" value="Reports Db" style="shape=process;whiteSpace=wrap;html=1;backgroundOutline=1;fillColor=none;fontSize=16;" vertex="1" parent="1">
          <mxGeometry x="70" y="700" width="120" height="60" as="geometry" />
        </mxCell>
        <mxCell id="-_nmz9Q-kG3tC2L_Btlv-63" style="edgeStyle=orthogonalEdgeStyle;rounded=0;orthogonalLoop=1;jettySize=auto;html=1;exitX=0.5;exitY=0;exitDx=0;exitDy=0;entryX=0.582;entryY=0.976;entryDx=0;entryDy=0;entryPerimeter=0;" edge="1" parent="1" source="-_nmz9Q-kG3tC2L_Btlv-59" target="-_nmz9Q-kG3tC2L_Btlv-30">
          <mxGeometry relative="1" as="geometry" />
        </mxCell>
        <mxCell id="-_nmz9Q-kG3tC2L_Btlv-66" value="&lt;font style=&quot;font-size: 16px;&quot;&gt;Show All Reports&lt;/font&gt;" style="edgeLabel;html=1;align=center;verticalAlign=middle;resizable=0;points=[];" vertex="1" connectable="0" parent="-_nmz9Q-kG3tC2L_Btlv-63">
          <mxGeometry x="0.0526" y="3" relative="1" as="geometry">
            <mxPoint y="-1" as="offset" />
          </mxGeometry>
        </mxCell>
        <mxCell id="-_nmz9Q-kG3tC2L_Btlv-68" value="&lt;font style=&quot;font-size: 16px;&quot;&gt;View Map&lt;/font&gt;" style="rounded=0;whiteSpace=wrap;html=1;fillColor=none;" vertex="1" parent="1">
          <mxGeometry x="200" y="580" width="120" height="60" as="geometry" />
        </mxCell>
        <mxCell id="-_nmz9Q-kG3tC2L_Btlv-70" style="edgeStyle=orthogonalEdgeStyle;rounded=0;orthogonalLoop=1;jettySize=auto;html=1;exitX=0.75;exitY=1;exitDx=0;exitDy=0;entryX=0.402;entryY=-0.016;entryDx=0;entryDy=0;entryPerimeter=0;" edge="1" parent="1" source="-_nmz9Q-kG3tC2L_Btlv-26" target="-_nmz9Q-kG3tC2L_Btlv-68">
          <mxGeometry relative="1" as="geometry" />
        </mxCell>
        <mxCell id="-_nmz9Q-kG3tC2L_Btlv-75" style="edgeStyle=orthogonalEdgeStyle;rounded=0;orthogonalLoop=1;jettySize=auto;html=1;exitX=1;exitY=0.5;exitDx=0;exitDy=0;entryX=0.5;entryY=1;entryDx=0;entryDy=0;startArrow=classic;startFill=1;" edge="1" parent="1" source="-_nmz9Q-kG3tC2L_Btlv-73" target="-_nmz9Q-kG3tC2L_Btlv-29">
          <mxGeometry relative="1" as="geometry" />
        </mxCell>
        <mxCell id="-_nmz9Q-kG3tC2L_Btlv-73" value="Alerts Db" style="shape=process;whiteSpace=wrap;html=1;backgroundOutline=1;fillColor=none;fontSize=16;" vertex="1" parent="1">
          <mxGeometry x="30" y="790" width="120" height="60" as="geometry" />
        </mxCell>
      </root>
    </mxGraphModel>
  </diagram>
</mxfile>
